<?xml version="1.0" encoding="UTF-8" standalone="no"?>
<!-- Created with Inkscape (http://www.inkscape.org/) -->

<svg
   xmlns:dc="http://purl.org/dc/elements/1.1/"
   xmlns:cc="http://creativecommons.org/ns#"
   xmlns:rdf="http://www.w3.org/1999/02/22-rdf-syntax-ns#"
   xmlns:svg="http://www.w3.org/2000/svg"
   xmlns="http://www.w3.org/2000/svg"
   xmlns:xlink="http://www.w3.org/1999/xlink"
   xmlns:sodipodi="http://sodipodi.sourceforge.net/DTD/sodipodi-0.dtd"
   xmlns:inkscape="http://www.inkscape.org/namespaces/inkscape"
   width="256"
   height="256"
   viewBox="0 0 67.733332 67.733335"
   version="1.1"
   id="svg5390"
   inkscape:version="0.92.1 r15371"
   sodipodi:docname="Config.svg"
   inkscape:export-filename="C:\Users\Kelvy\Desktop\Config.png"
   inkscape:export-xdpi="96"
   inkscape:export-ydpi="96">
  <defs
     id="defs5384">
    <linearGradient
       inkscape:collect="always"
       id="linearGradient5951">
      <stop
         style="stop-color:#ff6600;stop-opacity:0"
         offset="0"
         id="stop5947" />
      <stop
         id="stop5955"
         offset="0.48416564"
         style="stop-color:#ff6600;stop-opacity:0.73777777" />
      <stop
         style="stop-color:#ff6600;stop-opacity:0;"
         offset="1"
         id="stop5949" />
    </linearGradient>
    <linearGradient
       inkscape:collect="always"
       xlink:href="#linearGradient5951"
       id="linearGradient5953"
       x1="10.156242"
       y1="231.25168"
       x2="10.156242"
       y2="295.12909"
       gradientUnits="userSpaceOnUse"
       gradientTransform="translate(23.462872,0.1889881)" />
    <linearGradient
       inkscape:collect="always"
       xlink:href="#linearGradient5951"
       id="linearGradient5975"
       gradientUnits="userSpaceOnUse"
       gradientTransform="rotate(-90,21.982172,251.55345)"
       x1="10.156242"
       y1="231.25168"
       x2="10.156242"
       y2="295.12909" />
  </defs>
  <sodipodi:namedview
     id="base"
     pagecolor="#ffffff"
     bordercolor="#666666"
     borderopacity="1.0"
     inkscape:pageopacity="0.0"
     inkscape:pageshadow="2"
     inkscape:zoom="1.4"
     inkscape:cx="128.43123"
     inkscape:cy="-24.881256"
     inkscape:document-units="px"
     inkscape:current-layer="g5969"
     showgrid="false"
     units="px"
     inkscape:window-width="1920"
     inkscape:window-height="1017"
     inkscape:window-x="-8"
     inkscape:window-y="-8"
     inkscape:window-maximized="1" />
  <metadata
     id="metadata5387">
    <rdf:RDF>
      <cc:Work
         rdf:about="">
        <dc:format>image/svg+xml</dc:format>
        <dc:type
           rdf:resource="http://purl.org/dc/dcmitype/StillImage" />
        <dc:title />
      </cc:Work>
    </rdf:RDF>
  </metadata>
  <g
     inkscape:label="Camada 1"
     inkscape:groupmode="layer"
     id="layer1"
     transform="translate(0,-229.26665)">
    <g
       id="g5969"
       transform="translate(0.24755301,-0.24606325)">
      <path
         inkscape:connector-curvature="0"
         id="path5945"
         d="m 33.619114,231.44067 v 63.87742"
         style="fill:#ff6600;stroke:url(#linearGradient5953);stroke-width:0.50270832;stroke-linecap:butt;stroke-linejoin:miter;stroke-miterlimit:4;stroke-dasharray:none;stroke-opacity:1" />
      <path
         style="fill:#ff6600;stroke:url(#linearGradient5975);stroke-width:0.50270832;stroke-linecap:butt;stroke-linejoin:miter;stroke-miterlimit:4;stroke-dasharray:none;stroke-opacity:1"
         d="m 1.680404,263.37938 h 63.87742"
         id="path5973"
         inkscape:connector-curvature="0" />
      <path
         style="opacity:1;fill:#ff6600;fill-opacity:1;stroke:#ff6600;stroke-width:0.36053064;stroke-linecap:round;stroke-linejoin:miter;stroke-miterlimit:4;stroke-dasharray:none;stroke-opacity:0.73777777"
         d="m 33.618852,240.51168 a 22.869592,22.869592 0 0 0 -1.526578,0.0539 L 31.3871,244.2492 a 19.28532,19.28532 0 0 0 -3.038108,0.58635 l -2.036133,-3.09571 a 22.869592,22.869592 0 0 0 -2.833148,1.15453 l 0.756025,3.66389 a 19.28532,19.28532 0 0 0 -2.586154,1.70301 l -3.062497,-2.07817 a 22.869592,22.869592 0 0 0 -2.172083,2.156 l 2.096323,3.08844 a 19.28532,19.28532 0 0 0 -1.730502,2.56696 l -3.631721,-0.7498 a 22.869592,22.869592 0 0 0 -1.176847,2.82589 l 3.111792,2.04651 a 19.28532,19.28532 0 0 0 -0.607622,3.03447 L 10.826024,261.85 a 22.869592,22.869592 0 0 0 -0.07627,1.53073 22.869592,22.869592 0 0 0 0.05396,1.52659 l 3.683612,0.70517 a 19.28532,19.28532 0 0 0 0.586347,3.03863 l -3.095708,2.03612 a 22.869592,22.869592 0 0 0 1.154536,2.83316 l 3.663892,-0.75655 a 19.28532,19.28532 0 0 0 1.703003,2.58719 l -2.078162,3.06197 a 22.869592,22.869592 0 0 0 2.155995,2.17209 l 3.088442,-2.09633 a 19.28532,19.28532 0 0 0 2.566958,1.73051 l -0.749799,3.63173 a 22.869592,22.869592 0 0 0 2.825884,1.17684 l 2.046506,-3.1118 a 19.28532,19.28532 0 0 0 3.03448,0.60762 l 0.698429,3.65041 a 22.869592,22.869592 0 0 0 1.530727,0.0763 22.869592,22.869592 0 0 0 1.52658,-0.0539 l 0.705175,-3.68362 A 19.28532,19.28532 0 0 0 38.88924,281.926 l 2.036648,3.09622 a 22.869592,22.869592 0 0 0 2.833148,-1.15505 l -0.756543,-3.66389 a 19.28532,19.28532 0 0 0 2.586673,-1.70301 l 3.061981,2.07816 a 22.869592,22.869592 0 0 0 2.17208,-2.15598 L 48.727422,275.334 a 19.28532,19.28532 0 0 0 1.729985,-2.56644 l 3.631724,0.74979 a 22.869592,22.869592 0 0 0 1.176843,-2.82587 l -3.111792,-2.04703 a 19.28532,19.28532 0 0 0 0.608141,-3.03449 l 3.649885,-0.69842 a 22.869592,22.869592 0 0 0 0.07627,-1.53074 22.869592,22.869592 0 0 0 -0.05397,-1.52657 l -3.683612,-0.70521 a 19.28532,19.28532 0 0 0 -0.586868,-3.0381 l 3.096228,-2.03666 a 22.869592,22.869592 0 0 0 -1.155054,-2.83316 l -3.663893,0.75655 A 19.28532,19.28532 0 0 0 48.738314,251.411 l 2.078161,-3.06197 a 22.869592,22.869592 0 0 0 -2.155995,-2.17208 l -3.088442,2.0958 a 19.28532,19.28532 0 0 0 -2.566437,-1.72998 l 0.749797,-3.6312 a 22.869592,22.869592 0 0 0 -2.826402,-1.17736 l -2.04651,3.11178 a 19.28532,19.28532 0 0 0 -3.033958,-0.60762 l -0.698427,-3.64989 a 22.869592,22.869592 0 0 0 -1.531251,-0.0768 z m 0,4.53875 A 18.33074,18.33074 0 0 1 51.949735,263.38079 18.33074,18.33074 0 0 1 33.618852,281.71167 18.33074,18.33074 0 0 1 15.28849,263.38079 18.33074,18.33074 0 0 1 33.618852,245.05043 Z"
         id="path5977"
         inkscape:connector-curvature="0" />
    </g>
  </g>
</svg>
